<?xml version="1.0" encoding="utf-8"?>
<!-- Generator: Adobe Illustrator 27.5.0, SVG Export Plug-In . SVG Version: 6.00 Build 0)  -->
<svg version="1.1" xmlns="http://www.w3.org/2000/svg" xmlns:xlink="http://www.w3.org/1999/xlink" x="0px" y="0px"
	 viewBox="0 0 500 500" style="enable-background:new 0 0 500 500;" xml:space="preserve">
<g id="BACKGROUND">
	<radialGradient id="SVGID_1_" cx="250" cy="249.6234" r="271.36" gradientUnits="userSpaceOnUse">
		<stop  offset="0" style="stop-color:#8DE5C7"/>
		<stop  offset="0.984" style="stop-color:#6AB9A3"/>
	</radialGradient>
	<rect y="-0.377" style="fill:url(#SVGID_1_);" width="500" height="500"/>
</g>
<g id="OBJECTS">
	<g>
		<polygon style="fill:#2F2930;" points="82.973,213.083 94.285,223.826 95.169,221.659 85.117,212.527 		"/>
		<polygon style="fill:#2F2930;" points="101.538,275.483 91.237,214.292 82.973,213.083 93.064,182.085 100.01,182.661 
			104.794,167.432 126.863,172.571 128.733,136.717 123.362,134.021 138.766,92.987 150.865,134.168 146.332,136.822 
			148.899,167.432 179.704,168.269 178.913,159.559 174.814,158.15 181.265,149.991 190.807,115.521 200.539,149.636 
			206.11,157.834 202.504,160.315 198.929,207.226 215.485,233.505 206.11,237.358 202.617,273.106 		"/>
		<polygon style="fill:#2F2930;" points="218.985,274.767 222.138,260.293 221.262,257.246 218.985,259.329 216.109,274.767 		"/>
		<polygon style="fill:#2F2930;" points="212.854,274.201 214.463,259.329 213.297,256.017 211.574,258.895 209.731,273.286 		"/>
		<polygon style="fill:#2F2930;" points="223.739,264.738 200.874,261.393 200.874,263.467 223.202,266.402 		"/>
		<polygon style="fill:#394E45;" points="82.973,213.083 94.074,188.468 97.929,194.819 93.328,214.292 110.627,215.129 
			93.064,182.085 		"/>
		<polygon style="fill:#394E45;" points="100.01,182.661 105.477,169.873 107.942,175.564 104.794,183.163 115.575,184.563 
			104.794,167.432 		"/>
		<polygon style="fill:#394E45;" points="138.766,92.987 123.362,134.021 134.657,137.32 		"/>
		<polygon style="fill:#394E45;" points="128.733,136.717 135.688,139.448 135.083,207.226 126.863,172.571 		"/>
		<path style="fill:#394E45;" d="M138.019,220.711l12.423-22.819l8.766-28.46l20.495-1.163c0,0-5.64,27.768-9.738,41.421
			c-4.098,13.653-12.237,28.983-12.237,28.983S147.299,232.988,138.019,220.711z"/>
		<polygon style="fill:#394E45;" points="185.964,155.925 174.814,158.15 181.265,149.991 190.807,115.521 189.978,148.534 
			182.815,150.391 189.259,149.99 		"/>
		<polygon style="fill:#2F2930;" points="87.668,236.569 95.767,275.812 97.004,275.483 90.792,235.797 		"/>
		<polygon style="fill:#2F2930;" points="82.973,237.853 91.237,248.495 91.237,245.902 84.801,236.93 		"/>
		<polygon style="fill:#394E45;" points="101.538,275.483 98.373,241.106 129.162,240.547 126.771,275.142 		"/>
		<polygon style="fill:#2F2930;" points="115.973,233.505 113.423,275.483 115.125,275.812 118.115,234.307 		"/>
		<polygon style="fill:#2F2930;" points="123.815,234.985 116.61,246.786 116.61,245.281 121.533,234.307 		"/>
		<polygon style="fill:#2F2930;" points="107.792,275.336 105.962,245.281 120.643,244.338 118.115,275.336 		"/>
		<g>
			<path style="fill:#394E45;" d="M179.948,231.169l5.981-0.483c0,0,4.568-43.309-2.567-43.119
				C174.927,187.792,179.948,231.169,179.948,231.169z"/>
			<path style="fill:#E7D16A;" d="M180.535,230.737l4.86-0.392c0,0,3.186-41.718-2.617-41.623
				C175.918,188.836,180.535,230.737,180.535,230.737z"/>
			<polygon style="fill:#2F2930;" points="182.358,194.116 182.452,232.191 182.984,232.671 182.984,194.065 			"/>
			<g>
				<polygon style="fill:#2F2930;" points="176.726,204.559 177.931,213.571 177.977,204.635 				"/>
				<polygon style="fill:#2F2930;" points="177,194.944 177.255,203.569 177.982,203.647 178.028,194.9 				"/>
				<polygon style="fill:#2F2930;" points="177.242,217.503 177.897,220.225 177.911,217.457 				"/>
				<polygon style="fill:#2F2930;" points="188.263,204.747 177.982,203.647 177.977,204.635 188.305,205.26 				"/>
				<polygon style="fill:#2F2930;" points="187.373,193.711 178.03,194.465 178.028,194.9 187.436,194.499 				"/>
				<polygon style="fill:#2F2930;" points="178.953,224.614 177.897,220.225 177.871,225.293 186.842,226.288 186.792,225.663 				
					"/>
				<polygon style="fill:#2F2930;" points="188.196,215.878 178.26,216.033 177.931,213.571 177.911,217.457 188.266,216.741 				
					"/>
			</g>
		</g>
		<g>
			<path style="fill:#394E45;" d="M193.296,187.717l3.742-0.302c0,0,2.858-27.095-1.606-26.976
				C190.156,160.579,193.296,187.717,193.296,187.717z"/>
			<path style="fill:#E7D16A;" d="M193.664,187.447l3.041-0.245c0,0,1.993-26.1-1.637-26.04
				C190.775,161.232,193.664,187.447,193.664,187.447z"/>
			<polygon style="fill:#2F2930;" points="194.805,164.535 194.863,188.356 195.196,188.656 195.196,164.504 			"/>
			<g>
				<polygon style="fill:#2F2930;" points="191.281,171.069 192.035,176.707 192.064,171.116 				"/>
				<polygon style="fill:#2F2930;" points="191.453,165.054 191.612,170.449 192.067,170.498 192.095,165.026 				"/>
				<polygon style="fill:#2F2930;" points="191.604,179.167 192.013,180.87 192.022,179.138 				"/>
				<polygon style="fill:#2F2930;" points="198.499,171.186 192.067,170.498 192.064,171.116 198.525,171.508 				"/>
				<polygon style="fill:#2F2930;" points="197.942,164.282 192.097,164.754 192.095,165.026 197.982,164.775 				"/>
				<polygon style="fill:#2F2930;" points="192.674,183.616 192.013,180.87 191.997,184.04 197.61,184.663 197.578,184.272 				"/>
				<polygon style="fill:#2F2930;" points="198.457,178.15 192.241,178.247 192.035,176.707 192.022,179.138 198.5,178.69 				"/>
			</g>
		</g>
		<g>
			<path style="fill:#394E45;" d="M140.44,172.608l3.742-0.32c0,0,2.858-28.738-1.606-28.612
				C137.299,143.826,140.44,172.608,140.44,172.608z"/>
			<path style="fill:#E7D16A;" d="M140.807,172.322l3.041-0.26c0,0,1.993-27.682-1.637-27.618
				C137.919,144.518,140.807,172.322,140.807,172.322z"/>
			<polygon style="fill:#2F2930;" points="141.948,148.021 142.006,173.286 142.339,173.605 142.339,147.988 			"/>
			<g>
				<polygon style="fill:#2F2930;" points="138.424,154.951 139.178,160.931 139.207,155.001 				"/>
				<polygon style="fill:#2F2930;" points="138.596,148.571 138.755,154.294 139.21,154.346 139.238,148.542 				"/>
				<polygon style="fill:#2F2930;" points="138.747,163.54 139.157,165.346 139.165,163.51 				"/>
				<polygon style="fill:#2F2930;" points="145.642,155.076 139.21,154.346 139.207,155.001 145.668,155.417 				"/>
				<polygon style="fill:#2F2930;" points="145.085,147.753 139.24,148.253 139.238,148.542 145.125,148.276 				"/>
				<polygon style="fill:#2F2930;" points="139.817,168.259 139.157,165.346 139.14,168.709 144.753,169.369 144.722,168.955 				
					"/>
				<polygon style="fill:#2F2930;" points="145.6,162.462 139.384,162.564 139.178,160.931 139.165,163.51 145.644,163.034 				"/>
			</g>
		</g>
		<path style="fill:#2F2930;" d="M131.989,173.352l-1.824-0.267c0,0-1.485-29.085,1.737-28.839
			C135.711,144.537,131.989,173.352,131.989,173.352z"/>
		<g>
			<polygon style="fill:#394E45;" points="113.86,205.133 117.613,192.021 111.285,192.021 109.182,198.577 			"/>
			<polygon style="fill:#394E45;" points="114.768,205.446 124.723,205.446 121.265,192.451 118.535,192.451 			"/>
			<polygon style="fill:#E7D16A;" points="115.21,205.133 123.559,205.133 120.659,193.31 118.369,193.31 			"/>
			<path style="fill:#2F2930;" d="M119.202,192.955l-0.234,12.725l0.417-0.156c0.325,0.039,0.403-12.569,0.403-12.569l1.522-0.507
				l1.717,6.323l-6.44-0.351v0.312l6.753,0.937l0.898,2.342l-8.822,0.117l-0.206,0.781l8.349-0.429l2.2-0.859l-4.294-10.086"/>
		</g>
		<g>
			<path style="fill:#394E45;" d="M165.787,263.667h8.869c0,0-0.717-16.411-3.402-16.34
				C168.569,247.398,165.787,263.667,165.787,263.667z"/>
			<path style="fill:#E7D16A;" d="M166.699,263.487h7.163c0,0-0.579-15.482-2.747-15.415
				C168.945,248.139,166.699,263.487,166.699,263.487z"/>
			<path style="fill:#2F2930;" d="M170.719,247.275l-0.489,17.363c0.09,0.008,0.385,1,0.489,0.055
				c0.495-4.507,0.881-19.144,0.881-19.144l2.978,7.05l-6.811-0.288l-1.068,1.007l7.88-0.144l1.091,6.667l-9.935-0.589v0.378
				l10.499,1.025l-3.539-16.318h-1.71"/>
		</g>
		<g>
			<path style="fill:#394E45;" d="M146.77,257.994h6.266c0,0-0.506-11.595-2.403-11.544
				C148.735,246.5,146.77,257.994,146.77,257.994z"/>
			<path style="fill:#E7D16A;" d="M147.414,257.867h5.06c0,0-0.409-10.939-1.941-10.891
				C149.001,247.023,147.414,257.867,147.414,257.867z"/>
			<path style="fill:#2F2930;" d="M150.255,246.413l-0.345,12.267c0.064,0.006,0.272,0.706,0.345,0.038
				c0.35-3.185,0.622-13.526,0.622-13.526l2.104,4.981l-4.812-0.203l-0.755,0.712l5.567-0.102l0.771,4.711l-7.019-0.416v0.267
				l7.418,0.724l-2.501-11.529h-1.208"/>
		</g>
		<g>
			<path style="fill:#394E45;" d="M192.784,263.667h8.869c0,0-0.716-16.411-3.402-16.34
				C195.566,247.398,192.784,263.667,192.784,263.667z"/>
			<path style="fill:#E7D16A;" d="M193.696,263.487h7.163c0,0-0.579-15.482-2.747-15.415S193.696,263.487,193.696,263.487z"/>
			<path style="fill:#2F2930;" d="M197.717,247.275l-0.489,17.363c0.09,0.008,0.385,1,0.489,0.055
				c0.495-4.507,0.881-19.144,0.881-19.144l2.978,7.05l-6.811-0.288l-1.068,1.007l7.88-0.144l1.091,6.667l-9.935-0.589v0.378
				l10.499,1.025l-3.54-16.318h-1.71"/>
		</g>
		<polygon style="fill:#394E45;" points="179.589,273.518 178.552,243.471 192.671,242.085 190.616,273.742 		"/>
		<polygon style="fill:#E7D16A;" points="180.616,244.892 190.84,244.076 190.84,245.922 180.616,246.161 		"/>
		<g>
			<polygon style="fill:#2F2930;" points="150.95,189.587 158.506,190.007 162.575,196.902 161.056,206.433 154.303,207.627 			"/>
			<polygon style="fill:#2F2930;" points="145.998,198.982 145.998,207.083 154.303,207.627 154.882,198.982 151.309,191.38 			"/>
			<polygon style="fill:#394E45;" points="146.463,199.842 146.463,206.035 153.354,206.45 153.836,199.842 150.87,194.032 			"/>
			<polygon style="fill:#2F2930;" points="147.172,199.919 147.172,204.921 152.738,205.257 153.127,199.919 150.732,195.225 			"/>
			<polygon style="fill:#394E45;" points="144.937,198.512 150.95,189.587 156.727,198.512 154.882,198.982 150.832,192.84 
				145.998,198.982 			"/>
		</g>
		<g>
			<circle style="fill:#394E45;" cx="194.506" cy="143.627" r="3.042"/>
			<path style="fill:#E7D16A;" d="M197.07,143.777c0,1.499-1.215,2.714-2.714,2.714c-1.499,0-2.714-1.215-2.714-2.714
				c0-1.499,1.215-2.714,2.714-2.714C195.855,141.063,197.07,142.278,197.07,143.777z"/>
			<g>
				<path style="fill:#2F2930;" d="M195.334,144.865l-0.163,2.091c0.239-0.007,0.471-0.031,0.697-0.071l-0.028-2.039l1.882-0.07
					c0.013-0.07,0.018-0.14,0.028-0.21l-1.915-0.03l-0.028-2.092l1.836,0.049c-0.023-0.101-0.045-0.202-0.073-0.304l-6.168-0.212
					c-0.028,0.108-0.061,0.223-0.099,0.347l1.861,0.049l0.069,2.121l-2.042-0.032c0.113,0.193,0.249,0.37,0.394,0.542l1.662-0.062
					l0.059,1.828c0.173,0.089,0.355,0.161,0.561,0.203l-0.2-2.047L195.334,144.865z M193.422,142.381l2.101,0.056l-0.163,2.092
					l-1.732-0.027L193.422,142.381z"/>
			</g>
		</g>
		<g>
			<circle style="fill:#394E45;" cx="142.196" cy="124.916" r="3.042"/>
			<circle style="fill:#E7D16A;" cx="142.046" cy="125.066" r="2.714"/>
			<g>
				<path style="fill:#2F2930;" d="M143.024,126.155l-0.163,2.091c0.239-0.007,0.471-0.031,0.697-0.071l-0.028-2.039l1.882-0.07
					c0.013-0.07,0.018-0.14,0.028-0.209l-1.915-0.03l-0.028-2.092l1.836,0.049c-0.023-0.101-0.045-0.202-0.073-0.304l-6.168-0.211
					c-0.028,0.107-0.061,0.223-0.099,0.347l1.861,0.049l0.069,2.121l-2.042-0.032c0.113,0.193,0.249,0.37,0.394,0.542l1.662-0.062
					l0.059,1.828c0.173,0.088,0.355,0.161,0.561,0.203l-0.2-2.047L143.024,126.155z M141.111,123.67l2.101,0.056l-0.163,2.092
					l-1.732-0.027L141.111,123.67z"/>
			</g>
		</g>
		<polygon style="fill:#394E45;" points="178.913,159.559 186.842,158.154 188.097,187.447 179.704,168.269 		"/>
		<path style="fill:#2F2930;" d="M181.82,169.044c0,0-0.131-8.599,0.991-8.793c1.122-0.194,2.801,16.148,2.801,16.148
			L181.82,169.044z"/>
		<polygon style="fill:#2F2930;" points="81.899,274.767 78.746,260.293 79.622,257.246 81.899,259.329 84.775,274.767 		"/>
		<polygon style="fill:#2F2930;" points="88.03,274.201 86.421,259.329 87.587,256.017 89.31,258.895 91.153,273.286 		"/>
		<polygon style="fill:#2F2930;" points="77.145,264.738 100.01,261.393 100.01,263.467 77.682,266.402 		"/>
		<polygon style="fill:#2F2930;" points="224.183,274.069 200.333,272.28 95.652,271.76 76.313,273.379 75.814,275.724 
			225.07,275.724 		"/>
		<polygon style="fill:#394E45;" points="82.973,237.853 102.893,217.994 123.815,234.985 		"/>
		<ellipse style="fill:#2F2930;" cx="103.269" cy="229.981" rx="3.259" ry="3.524"/>
		<polygon style="fill:#2F2930;" points="215.485,233.505 204.425,249.264 203.231,247.327 213.233,232.671 		"/>
		<path style="fill:#2F2930;" d="M190.99,118.172c0,0-2.332-2.285-0.394-4.861c0,0-2.016-4.244-0.18-11.643
			c0,0,2.41,8.031,0.953,11.697C191.37,113.364,193.488,115.479,190.99,118.172z"/>
		<path style="fill:#2F2930;" d="M138.432,94.951c0,0-2.332-2.285-0.394-4.861c0,0-1.11-4.244,0.726-11.643
			c0,0,1.504,8.031,0.047,11.697C138.811,90.144,140.93,92.258,138.432,94.951z"/>
		<path style="fill:#394E45;" d="M104.888,168.69c0,0-2.332-2.285-0.394-4.861c0,0-1.11-4.244,0.726-11.643
			c0,0,1.504,8.031,0.047,11.697C105.267,163.883,107.385,165.997,104.888,168.69z"/>
		<path style="fill:#394E45;" d="M93.215,183.148c0,0-2.332-2.285-0.394-4.861c0,0-1.11-4.244,0.726-11.643
			c0,0,1.504,8.031,0.047,11.697C93.595,178.341,95.713,180.455,93.215,183.148z"/>
	</g>
	<g>
		<path style="fill:#2F2930;" d="M298.237,274.906h-5.36l-5.816-65.065l-8.656,1.285l12.46-33.495l6.791-1.129l-1.171-13.384
			l-6.455-0.945l20.265-39.214c0,0,44.562,8.395,82.438,2.757l17.901,34.11l-8.645,2.203v31.738l12.918-1.222l14.754,32.014
			l-134.049,6.65L298.237,274.906z"/>
		<polygon style="fill:#2F2930;" points="421.793,223.997 416.24,274.647 309.523,275.092 298.237,274.906 292.877,228.545 		"/>
		<polygon style="fill:#394E45;" points="367.976,273.964 372.208,231.27 304.546,233.807 315.14,273.926 		"/>
		<polygon style="fill:#394E45;" points="374.129,223.437 372.377,223.997 335.85,197.57 320.628,212.136 328.363,214.335 
			316.849,226.65 302.779,226.65 335.85,195.54 		"/>
		<g>
			<path style="fill:#2F2930;" d="M366.826,253.559h-7.253c0,0,0.586-13.42,2.782-13.362
				C364.551,240.255,366.826,253.559,366.826,253.559z"/>
			<path style="fill:#E7D16A;" d="M366.08,253.412h-5.857c0,0,0.473-12.661,2.247-12.606
				C364.243,240.861,366.08,253.412,366.08,253.412z"/>
			<path style="fill:#2F2930;" d="M362.792,240.155l0.4,14.199c-0.074,0.007-0.315,0.818-0.4,0.045
				c-0.405-3.686-0.72-15.656-0.72-15.656l-2.435,5.765l5.57-0.235l0.874,0.824l-6.444-0.118l-0.892,5.452l8.124-0.481v0.309
				l-8.586,0.838l2.895-13.344h1.398"/>
		</g>
		<g>
			<path style="fill:#2F2930;" d="M321.708,253.559h-7.253c0,0,0.586-13.42,2.782-13.362
				C319.433,240.255,321.708,253.559,321.708,253.559z"/>
			<path style="fill:#E7D16A;" d="M320.962,253.412h-5.857c0,0,0.473-12.661,2.247-12.606
				C319.125,240.861,320.962,253.412,320.962,253.412z"/>
			<path style="fill:#2F2930;" d="M317.674,240.155l0.4,14.199c-0.074,0.007-0.315,0.818-0.4,0.045
				c-0.405-3.686-0.721-15.656-0.721-15.656l-2.435,5.765l5.57-0.235l0.874,0.824l-6.444-0.118l-0.892,5.452l8.124-0.481v0.309
				l-8.586,0.838l2.895-13.344h1.398"/>
		</g>
		<polygon style="fill:#2F2930;" points="348.148,274.664 349.532,241.782 330.688,240.266 333.431,274.91 		"/>
		<polygon style="fill:#E7D16A;" points="346.778,243.338 333.131,242.444 333.131,244.464 346.778,244.726 		"/>
		<g>
			<circle style="fill:#394E45;" cx="337.486" cy="216.603" r="7.958"/>
			<circle style="fill:#E7D16A;" cx="337.878" cy="216.996" r="7.101"/>
			<g>
				<polygon style="fill:#2E1439;" points="335.85,226.65 335.842,226.541 336.988,226.476 				"/>
				<path style="fill:#2F2930;" d="M327.995,219.571l6,0.223l-0.093,6.856l1.939-0.11l-0.521-6.697l4.354,0.162l-0.6,6.149
					l-2.086,0.321l13.258-0.751l-3.468-13.476l-17.95,0.615v0.785l5.253-0.14l-0.074,5.474l-6.011,0.095V219.571z M347.378,218.771
					l-6.564,0.104l0.181-5.55l5.783-0.154L347.378,218.771z M340.776,220.047l7.053,0.263l-7.252,5.846L340.776,220.047z
					 M335.252,218.964l-0.426-5.474l5.498-0.146l-0.541,5.549L335.252,218.964z"/>
			</g>
		</g>
		<polygon style="fill:#394E45;" points="288.548,210.242 290.417,226.563 300.131,226.337 298.69,209.689 		"/>
		<polygon style="fill:#2F2930;" points="375.639,103.088 363.1,141.266 386.483,141.143 		"/>
		<polygon style="fill:#394E45;" points="375.639,103.088 363.1,141.266 352.291,156.039 367.491,156.804 373.583,142.38 
			365.52,141.143 373.583,139.934 		"/>
		<polygon style="fill:#394E45;" points="355.482,158.031 367.491,158.539 368.022,162.93 358.298,162.676 367.856,165.202 
			370.976,208.572 360.339,190.061 		"/>
		<polygon style="fill:#394E45;" points="290.03,162.174 308.648,134.586 312.457,147.09 302.566,163.202 324.925,165.88 
			310.295,122.96 		"/>
		<polygon style="fill:#394E45;" points="278.405,211.126 290.865,177.632 298.69,207.068 288.548,208.572 292.876,192.337 
			290.417,183.302 		"/>
		<path style="fill:#2F2930;" d="M291.587,224.391l6.718-0.394c0,0-1.951-12.03-4.261-12.097
			C291.735,211.833,291.587,224.391,291.587,224.391z"/>
		<polygon style="fill:#394E45;" points="298.69,163.776 313.794,166.358 313.165,212.875 302.089,223.481 		"/>
		<path style="fill:#2F2930;" d="M303.993,212.875l6.764-1.196c0,0,1.207-42.954-4.717-43.262
			C300.117,168.109,303.993,212.875,303.993,212.875z"/>
		<path style="fill:#2F2930;" d="M314.735,155.079c0.787,1.277,0.786,3.177,0.197,4.482c-0.53,1.174-1.627,2.127-2.905,2.292
			c-3.548,0.459-3.714-3.933-2.511-6.167c0.596-1.107,1.721-2.052,2.975-1.965C313.538,153.794,314.273,154.329,314.735,155.079z"/>
		<g>
			<polygon style="fill:#394E45;" points="334.267,157.016 338.021,137.354 331.693,137.354 329.59,147.185 			"/>
			<polygon style="fill:#394E45;" points="335.175,157.484 345.131,157.484 341.673,137.999 338.942,137.999 			"/>
			<polygon style="fill:#E7D16A;" points="335.618,157.016 343.967,157.016 341.067,139.287 338.777,139.287 			"/>
			<path style="fill:#2F2930;" d="M339.497,137.07l-0.255,20.765l0.454-0.255c0.353,0.064,0.438-20.51,0.438-20.51l1.657-0.828
				l1.869,10.319l-7.009-0.573v0.509l7.349,1.529l0.977,3.822l-9.601,0.191l-0.224,1.274l9.087-0.701l2.394-1.401l-4.673-16.459"/>
		</g>
		<g>
			<path style="fill:#394E45;" d="M321.027,189.8h10.985c0,0-0.887-16.411-4.213-16.34C324.472,173.531,321.027,189.8,321.027,189.8
				z"/>
			<path style="fill:#E7D16A;" d="M322.156,189.62h8.871c0,0-0.717-15.482-3.403-15.415
				C324.939,174.272,322.156,189.62,322.156,189.62z"/>
			<path style="fill:#2F2930;" d="M327.136,173.408l-0.605,17.363c0.112,0.008,0.477,1,0.605,0.055
				c0.613-4.507,1.091-19.144,1.091-19.144l3.688,7.05l-8.436-0.288l-1.323,1.007l9.759-0.144l1.352,6.667l-12.305-0.589v0.378
				l13.003,1.025l-4.384-16.318h-2.118"/>
		</g>
		<g>
			<path style="fill:#394E45;" d="M337.382,189.8h10.985c0,0-0.887-16.411-4.213-16.34C340.828,173.531,337.382,189.8,337.382,189.8
				z"/>
			<path style="fill:#E7D16A;" d="M338.512,189.62h8.871c0,0-0.717-15.482-3.403-15.415
				C341.294,174.272,338.512,189.62,338.512,189.62z"/>
			<path style="fill:#2F2930;" d="M343.492,173.408l-0.605,17.363c0.112,0.008,0.477,1,0.605,0.055
				c0.613-4.507,1.091-19.144,1.091-19.144l3.688,7.05l-8.436-0.288l-1.323,1.007l9.759-0.144l1.352,6.667l-12.305-0.589v0.378
				l13.003,1.025l-4.384-16.318h-2.118"/>
		</g>
		<g>
			<path style="fill:#394E45;" d="M378.912,204.741l5.388-0.435c0,0,4.115-39.016-2.312-38.845
				C374.389,165.664,378.912,204.741,378.912,204.741z"/>
			<path style="fill:#E7D16A;" d="M379.44,204.352l4.379-0.353c0,0,2.87-37.583-2.358-37.496
				C375.282,166.604,379.44,204.352,379.44,204.352z"/>
			<polygon style="fill:#2F2930;" points="381.083,171.36 381.168,205.661 381.647,206.093 381.647,171.315 			"/>
			<g>
				<polygon style="fill:#2F2930;" points="376.009,180.768 377.095,188.887 377.137,180.837 				"/>
				<polygon style="fill:#2F2930;" points="376.257,172.107 376.486,179.876 377.141,179.947 377.182,172.068 				"/>
				<polygon style="fill:#2F2930;" points="376.474,192.43 377.064,194.881 377.077,192.388 				"/>
				<polygon style="fill:#2F2930;" points="386.403,180.938 377.141,179.947 377.137,180.837 386.44,181.4 				"/>
				<polygon style="fill:#2F2930;" points="385.601,170.996 377.184,171.675 377.182,172.068 385.658,171.706 				"/>
				<polygon style="fill:#2F2930;" points="378.015,198.836 377.064,194.881 377.04,199.447 385.123,200.343 385.078,199.781 				
					"/>
				<polygon style="fill:#2F2930;" points="386.343,190.966 377.392,191.105 377.095,188.887 377.077,192.388 386.405,191.742 				
					"/>
			</g>
		</g>
		<path style="fill:#2F2930;" d="M362.445,188.898l3.636,0.902c0,0,0.419-20.42-3.434-22.188
			C358.793,165.844,362.445,188.898,362.445,188.898z"/>
		<g>
			<polygon style="fill:#394E45;" points="296.428,256.766 354.727,262.012 423.901,261.019 423.901,263.396 354.54,263.494 
				297.536,259.66 			"/>
			<polygon style="fill:#394E45;" points="300.948,258.728 301.013,259.176 303.229,274.434 304.273,274.683 302.61,258.964 			"/>
			<polygon style="fill:#394E45;" points="305.924,258.964 308.252,274.434 309.703,274.434 308.569,259.237 			"/>
			<polygon style="fill:#394E45;" points="312.671,259.719 313.396,274.434 314.521,274.683 314.521,260.13 			"/>
			<path style="fill:#394E45;" d="M317.576,259.662l2.145,14.772l1.044,0.249l-1.56-14.752
				C318.658,259.847,318.116,259.758,317.576,259.662z"/>
			<path style="fill:#394E45;" d="M322.631,260.393l2.113,14.041h1.451l-1.029-13.791
				C324.319,260.569,323.473,260.488,322.631,260.393z"/>
			<path style="fill:#394E45;" d="M329.222,260.925l0.666,13.509l1.125,0.249v-13.679
				C330.417,260.981,329.821,260.956,329.222,260.925z"/>
			<path style="fill:#394E45;" d="M333.548,260.54l2.018,13.894l1.044,0.249l-1.456-13.765
				C334.615,260.809,334.08,260.681,333.548,260.54z"/>
			<path style="fill:#394E45;" d="M338.633,261.438l1.956,12.996h1.451l-0.956-12.808
				C340.264,261.582,339.446,261.521,338.633,261.438z"/>
			<polygon style="fill:#394E45;" points="376.523,262.478 378.322,274.434 379.773,274.434 378.881,262.478 			"/>
			<polygon style="fill:#394E45;" points="382.877,262.478 383.466,274.434 384.591,274.683 384.591,262.478 			"/>
			<polygon style="fill:#394E45;" points="387.407,262.478 389.143,274.434 390.187,274.683 388.897,262.478 			"/>
			<polygon style="fill:#394E45;" points="392.368,262.478 394.167,274.434 395.618,274.434 394.725,262.478 			"/>
			<polygon style="fill:#394E45;" points="412.525,262.478 411.936,274.434 410.811,274.683 410.811,262.478 			"/>
			<polygon style="fill:#394E45;" points="407.995,262.478 406.259,274.434 405.215,274.683 406.506,262.478 			"/>
			<polygon style="fill:#394E45;" points="403.035,262.478 401.235,274.434 399.784,274.434 400.677,262.478 			"/>
			<polygon style="fill:#394E45;" points="420.676,262.478 418.877,274.434 417.426,274.434 418.318,262.478 			"/>
			<path style="fill:#394E45;" d="M345.107,261.734l0.626,12.7l1.125,0.249v-12.946
				C346.274,261.738,345.691,261.737,345.107,261.734z"/>
			<path style="fill:#394E45;" d="M349.085,262.048l2.113,12.415h1.451l-1.03-12.194
				C350.772,262.203,349.927,262.132,349.085,262.048z"/>
			<path style="fill:#394E45;" d="M355.676,262.518l0.666,11.945l1.125,0.22v-12.095
				C356.871,262.568,356.274,262.546,355.676,262.518z"/>
			<path style="fill:#394E45;" d="M360.001,262.178l2.018,12.285l1.044,0.22l-1.456-12.171
				C361.068,262.415,360.533,262.302,360.001,262.178z"/>
			<path style="fill:#394E45;" d="M365.086,262.972l1.956,11.491h1.451l-0.956-11.325
				C366.717,263.099,365.9,263.045,365.086,262.972z"/>
			<path style="fill:#394E45;" d="M371.56,263.233l0.626,11.23l1.125,0.22v-11.447C372.728,263.237,372.144,263.237,371.56,263.233z
				"/>
		</g>
		<polygon style="fill:#2F2930;" points="289.075,223.997 277.764,238.412 277.764,239.972 285.92,239.734 287.097,259.103 
			285.133,260.247 287.872,273.699 295.613,271.803 		"/>
		<polygon style="fill:#2F2930;" points="277.764,239.972 287.872,249.064 288.312,247.546 279.627,238.412 		"/>
		<polygon style="fill:#2F2930;" points="280.482,275.812 281.993,273.893 294.044,272.261 415.716,272.261 427.891,273.477 
			427.891,275.812 		"/>
		<g>
			<path style="fill:#394E45;" d="M376.34,147.84c0,2.404,1.949,4.352,4.352,4.352c2.404,0,4.352-1.949,4.352-4.352
				s-1.949-4.352-4.352-4.352C378.289,143.488,376.34,145.436,376.34,147.84z"/>
			<path style="fill:#E7D16A;" d="M377.024,148.055c0,2.145,1.739,3.883,3.883,3.883s3.883-1.739,3.883-3.883
				s-1.739-3.883-3.883-3.883S377.024,145.91,377.024,148.055z"/>
			<g>
				<polygon style="fill:#2E1439;" points="379.798,153.335 379.793,153.275 380.42,153.24 				"/>
				<path style="fill:#2F2930;" d="M375.502,149.463l3.282,0.122l-0.051,3.75l1.061-0.06l-0.285-3.663l2.381,0.089l-0.328,3.363
					l-1.141,0.175l7.251-0.411l-1.897-7.37l-9.817,0.337v0.429l2.873-0.076l-0.041,2.994l-3.288,0.052V149.463z M386.103,149.026
					l-3.59,0.057l0.099-3.035l3.163-0.084L386.103,149.026z M382.492,149.723l3.857,0.144l-3.966,3.197L382.492,149.723z
					 M379.471,149.131l-0.233-2.994l3.007-0.08l-0.296,3.035L379.471,149.131z"/>
			</g>
		</g>
		<path style="fill:#394E45;" d="M310.268,124.24c0,0-2.332-2.285-0.394-4.861c0,0-1.11-4.244,0.726-11.643
			c0,0,1.504,8.031,0.047,11.696C310.647,119.432,312.766,121.547,310.268,124.24z"/>
		<path style="fill:#394E45;" d="M290.776,178.747c0,0-1.886-1.901-0.367-3.995c0,0-0.932-3.496,0.455-9.55
			c0,0,1.286,6.609,0.163,9.603C291.027,174.804,292.741,176.563,290.776,178.747z"/>
		<path style="fill:#2F2930;" d="M414.721,194.05c0,0,1.885-1.901,0.367-3.995c0,0,0.931-3.496-0.455-9.55
			c0,0-1.286,6.609-0.163,9.603C414.469,190.107,412.756,191.866,414.721,194.05z"/>
		<path style="fill:#394E45;" d="M375.671,104.951c0,0,2.332-2.285,0.394-4.861c0,0,1.11-4.244-0.726-11.643
			c0,0-1.504,8.031-0.047,11.696C375.292,100.144,373.174,102.258,375.671,104.951z"/>
		<polygon style="fill:#2F2930;" points="429.661,224.561 417.426,237.752 417.171,235.285 427.891,223.481 		"/>
		<polygon style="fill:#2F2930;" points="404.632,159.894 404.632,164.362 407.192,164.295 407.666,159.357 		"/>
		<polygon style="fill:#2F2930;" points="405.215,162.817 405.215,170.471 403.035,174.204 403.035,195.54 404.125,196.042 
			404.125,174.336 406.149,170.753 406.149,162.597 		"/>
	</g>
	<g>
		<polygon style="fill:#2F2930;" points="293.357,370.862 302.218,377.79 301.831,375.772 294.992,369.803 		"/>
		<path style="fill:#2F2930;" d="M312.102,339.275c0,0,39.083,12.954,80.834,3.202l15.111,26.314l-0.551,1.59h-6.069l-7.592,72.874
			h-79.071l-14.952-73.085l-6.455,0.692l-1.007-1.722L312.102,339.275z"/>
		<polygon style="fill:#2F2930;" points="313.884,430.318 282.58,435.677 281.932,433.141 313.36,427.834 		"/>
		<polygon style="fill:#2F2930;" points="300.63,444.292 297.449,427.789 295.211,428.615 298.707,444.596 		"/>
		<polygon style="fill:#2F2930;" points="293.96,445.619 292.283,425.6 290.649,426.371 291.408,446.348 		"/>
		<polygon style="fill:#2F2930;" points="288.43,440.657 287.73,428.615 285.453,428.822 286.942,441.313 		"/>
		<polygon style="fill:#394E45;" points="300.942,371.133 314.764,443.255 341.295,443.185 327.454,371.746 		"/>
		<polygon style="fill:#394E45;" points="293.357,370.862 310.905,348.952 313.967,355.716 306.115,369.343 327.454,371.746 
			312.102,339.275 292.35,369.14 		"/>
		<polygon style="fill:#2F2930;" points="331.634,346.743 331.838,337.93 329.227,335.022 337.44,327.138 346.393,295.917 
			355.308,327.138 362.329,335.022 359.61,337.373 360.291,348.182 		"/>
		<polygon style="fill:#394E45;" points="301.553,416.949 309.52,401.923 319.223,415.451 		"/>
		<polygon style="fill:#394E45;" points="301.553,416.949 303.184,415.844 310.676,443.816 309.52,444.596 		"/>
		<polygon style="fill:#2F2930;" points="319.223,415.451 320.41,444.219 323.495,444.257 321.119,414.979 		"/>
		<polygon style="fill:#2F2930;" points="322.607,419.559 332.126,420.031 333.04,443.255 323.751,443.558 		"/>
		<polygon style="fill:#E7D16A;" points="324.503,421.699 330.43,421.699 330.43,424.105 324.479,423.827 		"/>
		<polygon style="fill:#2F2930;" points="362.372,410.516 371.892,411.165 372.805,443.141 363.517,443.558 		"/>
		<polygon style="fill:#E7D16A;" points="364.269,413.461 370.195,413.461 370.195,416.775 364.245,416.391 		"/>
		<polygon style="fill:#2F2930;" points="309.52,401.923 326.231,402.464 334.628,415.094 319.223,415.451 		"/>
		<polygon style="fill:#394E45;" points="329.227,335.022 340.915,337.373 343.199,328.58 338.155,327.335 343.56,327.138 
			346.393,295.917 337.44,327.138 		"/>
		<polygon style="fill:#394E45;" points="331.838,337.93 340.915,339.275 340.915,345.697 331.838,343.783 		"/>
		<path style="fill:#2F2930;" d="M314.764,360.611c3.448-0.414,3.684,8.33,3.684,8.33l-6.44-0.927
			C312.008,368.014,312.212,360.918,314.764,360.611z"/>
		<path style="fill:#2F2930;" d="M316.144,397.59c-0.652-4.726-3.365-22.815-6.624-22.371c-2.677,0.365-0.713,16.814,0.028,22.371
			H316.144z"/>
		<path style="fill:#2F2930;" d="M326.626,397.59c-0.652-4.726-3.365-22.815-6.624-22.371c-2.677,0.365-0.713,16.814,0.029,22.371
			H326.626z"/>
		<path style="fill:#394E45;" d="M347.45,402.759c0,0,9.921-8.339,14.154-14.62l31.461-5.128c0,0-9.65,12.683-17.826,17.921
			L347.45,402.759z"/>
		<polygon style="fill:#2F2930;" points="375.239,400.933 412.214,402.148 393.065,383.011 		"/>
		<g>
			<path style="fill:#394E45;" d="M349.121,360.317l4.314-0.233c0,0,3.295-20.901-1.851-20.809
				C345.5,339.383,349.121,360.317,349.121,360.317z"/>
			<path style="fill:#E7D16A;" d="M349.544,360.108l3.505-0.189c0,0,2.298-20.133-1.887-20.087
				C346.215,339.887,349.544,360.108,349.544,360.108z"/>
			<polygon style="fill:#2F2930;" points="350.86,342.435 350.927,360.81 351.311,361.042 351.311,342.41 			"/>
			<g>
				<polygon style="fill:#2F2930;" points="346.797,347.475 347.666,351.824 347.7,347.511 				"/>
				<polygon style="fill:#2F2930;" points="346.995,342.835 347.179,346.997 347.704,347.034 347.736,342.814 				"/>
				<polygon style="fill:#2F2930;" points="347.169,353.722 347.642,355.035 347.652,353.699 				"/>
				<polygon style="fill:#2F2930;" points="355.119,347.566 347.704,347.034 347.7,347.511 355.148,347.813 				"/>
				<polygon style="fill:#2F2930;" points="354.476,342.24 347.738,342.603 347.736,342.814 354.522,342.62 				"/>
				<polygon style="fill:#2F2930;" points="348.403,357.154 347.642,355.035 347.623,357.481 354.094,357.961 354.057,357.66 				
					"/>
				<polygon style="fill:#2F2930;" points="355.07,352.937 347.904,353.012 347.666,351.824 347.652,353.699 355.12,353.354 				"/>
			</g>
		</g>
		<g>
			<path style="fill:#394E45;" d="M381.897,430.19l4.314-0.233c0,0,3.295-20.901-1.851-20.809
				C378.276,409.256,381.897,430.19,381.897,430.19z"/>
			<path style="fill:#E7D16A;" d="M382.321,429.982l3.505-0.189c0,0,2.298-20.133-1.887-20.087
				C378.991,409.76,382.321,429.982,382.321,429.982z"/>
			<polygon style="fill:#2F2930;" points="383.636,412.308 383.703,430.683 384.087,430.915 384.087,412.284 			"/>
			<g>
				<polygon style="fill:#2F2930;" points="379.573,417.348 380.443,421.697 380.476,417.384 				"/>
				<polygon style="fill:#2F2930;" points="379.771,412.708 379.955,416.87 380.48,416.908 380.512,412.687 				"/>
				<polygon style="fill:#2F2930;" points="379.946,423.595 380.418,424.908 380.428,423.573 				"/>
				<polygon style="fill:#2F2930;" points="387.895,417.439 380.48,416.908 380.476,417.384 387.925,417.686 				"/>
				<polygon style="fill:#2F2930;" points="387.253,412.113 380.514,412.477 380.512,412.687 387.298,412.493 				"/>
				<polygon style="fill:#2F2930;" points="381.18,427.027 380.418,424.908 380.399,427.354 386.87,427.834 386.834,427.533 				"/>
				<polygon style="fill:#2F2930;" points="387.847,422.811 380.68,422.885 380.443,421.697 380.428,423.573 387.897,423.227 				
					"/>
			</g>
		</g>
		<g>
			<path style="fill:#394E45;" d="M348.128,430.19l4.314-0.233c0,0,3.295-20.901-1.851-20.809
				C344.507,409.256,348.128,430.19,348.128,430.19z"/>
			<path style="fill:#E7D16A;" d="M348.551,429.982l3.505-0.189c0,0,2.298-20.133-1.888-20.087
				C345.222,409.76,348.551,429.982,348.551,429.982z"/>
			<polygon style="fill:#2F2930;" points="349.867,412.308 349.934,430.683 350.318,430.915 350.318,412.284 			"/>
			<g>
				<polygon style="fill:#2F2930;" points="345.804,417.348 346.674,421.697 346.707,417.384 				"/>
				<polygon style="fill:#2F2930;" points="346.002,412.708 346.186,416.87 346.711,416.908 346.743,412.687 				"/>
				<polygon style="fill:#2F2930;" points="346.176,423.595 346.649,424.908 346.659,423.573 				"/>
				<polygon style="fill:#2F2930;" points="354.126,417.439 346.711,416.908 346.707,417.384 354.155,417.686 				"/>
				<polygon style="fill:#2F2930;" points="353.483,412.113 346.745,412.477 346.743,412.687 353.529,412.493 				"/>
				<polygon style="fill:#2F2930;" points="347.41,427.027 346.649,424.908 346.63,427.354 353.101,427.834 353.064,427.533 				"/>
				<polygon style="fill:#2F2930;" points="354.077,422.811 346.911,422.885 346.674,421.697 346.659,423.573 354.128,423.227 				
					"/>
			</g>
		</g>
		<g>
			<path style="fill:#394E45;" d="M388.95,393.634c0,2.879,2.334,5.213,5.213,5.213c2.879,0,5.213-2.334,5.213-5.213
				c0-2.879-2.334-5.213-5.213-5.213C391.284,388.421,388.95,390.755,388.95,393.634z"/>
			<path style="fill:#E7D16A;" d="M389.769,393.891c0,2.569,2.082,4.651,4.651,4.651c2.569,0,4.651-2.082,4.651-4.651
				c0-2.569-2.082-4.651-4.651-4.651C391.852,389.24,389.769,391.322,389.769,393.891z"/>
			<g>
				<path style="fill:#2F2930;" d="M391.83,399.202c0.398,0.036,0.795,0.07,1.191,0.103l-0.276-3.548l2.852,0.106l-0.349,3.577
					c0.318,0.01,0.636,0.013,0.955,0.01l0.116-3.56l3.681,0.137c0.09-0.318,0.149-0.64,0.185-0.966l-3.841,0.061l0.118-3.636
					l3.446-0.092c-0.039-0.198-0.073-0.397-0.095-0.599l-11.322,0.388v0.514l3.441-0.091l-0.049,3.586l-3.938,0.063v0.322
					l3.931,0.146L391.83,399.202z M396.022,391.498l-0.354,3.635l-2.968,0.047l-0.279-3.586L396.022,391.498z"/>
			</g>
		</g>
		<g>
			<path style="fill:#394E45;" d="M347.378,328.33c0,1.464,1.187,2.652,2.651,2.652c1.464,0,2.651-1.187,2.651-2.652
				c0-1.464-1.187-2.651-2.651-2.651C348.565,325.679,347.378,326.866,347.378,328.33z"/>
			<path style="fill:#E7D16A;" d="M347.794,328.461c0,1.306,1.059,2.366,2.366,2.366c1.307,0,2.366-1.059,2.366-2.366
				c0-1.307-1.059-2.366-2.366-2.366C348.854,326.095,347.794,327.154,347.794,328.461z"/>
			<g>
				<path style="fill:#2F2930;" d="M348.842,331.162c0.202,0.018,0.404,0.036,0.606,0.053l-0.14-1.805l1.451,0.054l-0.177,1.819
					c0.162,0.005,0.324,0.007,0.486,0.005l0.059-1.811l1.872,0.07c0.046-0.161,0.076-0.326,0.094-0.491l-1.954,0.031l0.06-1.849
					l1.753-0.047c-0.02-0.101-0.037-0.202-0.048-0.305l-5.759,0.197v0.262l1.75-0.047l-0.025,1.824l-2.003,0.032v0.164l1.999,0.074
					L348.842,331.162z M350.975,327.244l-0.18,1.849l-1.51,0.024l-0.142-1.824L350.975,327.244z"/>
			</g>
		</g>
		<g>
			<path style="fill:#394E45;" d="M337.251,396.38h9.906c0,0-0.8-18.06-3.8-17.982C340.359,378.476,337.251,396.38,337.251,396.38z"
				/>
			<path style="fill:#E7D16A;" d="M338.27,396.182h8c0,0-0.646-17.039-3.068-16.965C340.779,379.291,338.27,396.182,338.27,396.182z
				"/>
			<path style="fill:#2F2930;" d="M342.761,378.341l-0.546,19.108c0.101,0.009,0.43,1.1,0.546,0.06
				c0.553-4.96,0.984-21.068,0.984-21.068l3.326,7.758l-7.608-0.317l-1.193,1.108l8.801-0.158l1.219,7.338l-11.096-0.648v0.416
				l11.726,1.128l-3.953-17.958h-1.91"/>
		</g>
		<g>
			<path style="fill:#394E45;" d="M350.82,387.844h7.238c0,0-0.585-10.813-2.776-10.766
				C353.09,377.124,350.82,387.844,350.82,387.844z"/>
			<path style="fill:#E7D16A;" d="M351.564,387.725h5.845c0,0-0.472-10.202-2.242-10.157
				C353.398,377.612,351.564,387.725,351.564,387.725z"/>
			<path style="fill:#2F2930;" d="M354.846,377.043l-0.399,11.441c0.074,0.005,0.314,0.659,0.399,0.036
				c0.404-2.97,0.719-12.614,0.719-12.614l2.43,4.645l-5.559-0.19l-0.872,0.664l6.431-0.095l0.891,4.393l-8.108-0.388v0.249
				l8.568,0.675l-2.889-10.752h-1.396"/>
		</g>
		<g>
			<polygon style="fill:#394E45;" points="366.791,366.277 370.176,348.546 364.469,348.546 362.573,357.412 			"/>
			<polygon style="fill:#394E45;" points="367.61,366.699 376.588,366.699 373.469,349.128 371.007,349.128 			"/>
			<polygon style="fill:#E7D16A;" points="368.009,366.277 375.538,366.277 372.923,350.289 370.858,350.289 			"/>
			<path style="fill:#2F2930;" d="M371.507,348.29l-0.23,18.726l0.409-0.23c0.319,0.057,0.395-18.496,0.395-18.496l1.494-0.747
				l1.686,9.305l-6.321-0.517v0.46l6.628,1.379l0.881,3.447l-8.658,0.172l-0.202,1.149l8.195-0.632l2.159-1.264l-4.214-14.843"/>
		</g>
		<g>
			<polygon style="fill:#394E45;" points="383.832,366.277 387.217,348.546 381.51,348.546 379.613,357.412 			"/>
			<polygon style="fill:#394E45;" points="384.651,366.699 393.628,366.699 390.51,349.128 388.048,349.128 			"/>
			<polygon style="fill:#E7D16A;" points="385.05,366.277 392.579,366.277 389.964,350.289 387.899,350.289 			"/>
			<path style="fill:#2F2930;" d="M388.547,348.29l-0.23,18.726l0.409-0.23c0.319,0.057,0.395-18.496,0.395-18.496l1.494-0.747
				l1.686,9.305l-6.321-0.517v0.46l6.627,1.379l0.881,3.447l-8.658,0.172l-0.202,1.149l8.195-0.632l2.159-1.264l-4.214-14.843"/>
		</g>
		<polygon style="fill:#394E45;" points="374.029,400.118 376.836,443.255 378.447,443.255 375.239,400.933 		"/>
		<polygon style="fill:#2F2930;" points="412.214,402.148 403.838,443.816 401.247,443.816 409.603,400.966 		"/>
		<polygon style="fill:#2F2930;" points="393.542,430.318 424.846,435.677 425.494,433.141 394.066,427.834 		"/>
		<polygon style="fill:#2F2930;" points="396.217,444.596 399.722,424.908 401.171,425.6 398.274,444.596 		"/>
		<polygon style="fill:#2F2930;" points="406.795,444.292 409.977,427.789 412.214,428.615 408.719,444.596 		"/>
		<polygon style="fill:#2F2930;" points="413.466,445.619 415.142,425.6 416.777,426.371 416.018,446.348 		"/>
		<polygon style="fill:#2F2930;" points="418.995,440.657 419.696,428.615 421.972,428.822 420.484,441.313 		"/>
		<path style="fill:#2F2930;" d="M301.415,423.413c-0.116,0.016-0.991,0.162-1.873,0.28l4.045,20.124l1.837,0.158L301.415,423.413z"
			/>
		<polygon style="fill:#2F2930;" points="286.296,447.476 419.696,447.476 419.696,445.707 391.453,442.026 316.144,442.026 
			286.942,445.707 		"/>
		<polygon style="fill:#2F2930;" points="407.496,370.381 399.376,378.542 399.072,377.423 406.413,369.228 		"/>
		<path style="fill:#2F2930;" d="M392.555,343.17c0,0-2.103-2.061-0.355-4.384c0,0-1.289-3.441,0.368-10.113
			c0,0,1.644,6.856,0.33,10.161C392.897,338.834,394.807,340.741,392.555,343.17z"/>
		<path style="fill:#394E45;" d="M311.984,340.592c0,0-2.103-2.061-0.355-4.384c0,0-1.289-3.441,0.367-10.113
			c0,0,1.644,6.856,0.33,10.161C312.326,336.256,314.236,338.163,311.984,340.592z"/>
		<path style="fill:#2F2930;" d="M346.368,297.639c0,0-2.103-2.061-0.355-4.384c0,0-1.289-3.441,0.368-10.113
			c0,0,1.644,6.856,0.33,10.161C346.71,293.304,348.621,295.21,346.368,297.639z"/>
	</g>
	<g>
		<g>
			<polygon style="fill:#2E1439;" points="181.798,326.502 188.596,326.302 188.307,328.004 185.144,328.405 184.718,329.408 
				185.526,336.383 181.617,336.512 			"/>
			<polygon style="fill:#2E1439;" points="181.617,336.512 182.903,363.886 178.583,370.139 177.641,377.82 178.697,378.158 
				179.677,370.599 184.487,364.495 183.217,335.461 			"/>
		</g>
		<g>
			<polygon style="fill:#2E1439;" points="96.94,394.169 86.514,394.259 86.875,395.947 90.053,396.213 90.521,397.197 
				90.011,404.2 97.547,404.162 			"/>
			<polygon style="fill:#2E1439;" points="93.922,404.162 93.803,413.442 97.48,418.599 98.747,442.545 97.707,442.928 
				96.406,419.106 92.246,414.118 92.279,403.181 			"/>
		</g>
		<polygon style="fill:#2E1439;" points="104.147,329.532 113.86,341.408 113.86,339.706 105.231,327.873 		"/>
		<polygon style="fill:#2F2930;" points="211.428,411.873 209.286,443.906 207.272,444.592 208.138,410.838 		"/>
		<path style="fill:#2F2930;" d="M102.884,328.121l23.789-24.46c0,0,14.794,0.746,37.051-4.559l24.797,23.057v1.389h-4.214
			l-7.669,50.974l17.54-2.704l2.374,9.527l8.039-1.448l6.835,31.976l-9.25,1.728l-3.224,29.387h-98.39l-4.306-46.025l-9.245-1.252
			l-0.09-2.209l13.783-18.303l14.424,2.749l-0.56-7.459l-4.848-0.26l7.71-8.242l-9.09-33.285l-4.195,0.831L102.884,328.121z"/>
		<polygon style="fill:#394E45;" points="109.722,370.228 118.412,361.986 148.952,359.539 139.885,369.224 		"/>
		<polygon style="fill:#394E45;" points="115.767,371.223 116.159,387.178 141.834,387.959 140.15,370.228 		"/>
		<path style="fill:#2F2930;" d="M120.062,385.158c0,0-0.202-11.329,2.577-11.68c2.778-0.351,3.904,11.666,3.904,11.666
			L120.062,385.158z"/>
		<path style="fill:#2F2930;" d="M131.142,384.938c0,0-1.212-11.566,2.932-11.518c4.144,0.047,3.515,11.724,3.515,11.724
			L131.142,384.938z"/>
		<polygon style="fill:#394E45;" points="108.342,328.701 153.849,324.853 157.134,386.083 151.384,386.72 148.952,359.539 
			118.412,360.205 		"/>
		<path style="fill:#2F2930;" d="M121.827,355.394c0,0-4.112-22.627,0-23.438c4.112-0.811,6.026,23.438,6.026,23.438H121.827z"/>
		<path style="fill:#2F2930;" d="M132.2,355.394c0,0-4.112-22.627,0-23.438c4.112-0.811,6.026,23.438,6.026,23.438H132.2z"/>
		<path style="fill:#2F2930;" d="M142.574,355.394c0,0-4.112-22.627,0-23.438c4.112-0.811,6.026,23.438,6.026,23.438H142.574z"/>
		<path style="fill:#394E45;" d="M100.706,375.198l-12.443,18.303c0,0,33.601,4.476,69.832,3.22l3.71-8.194H115.13l0.802-10.58
			L100.706,375.198z"/>
		<path style="fill:#2F2930;" d="M101.305,423.486l-25.954,2.65v1.338c0,0,24.744-1.117,25.171-1.338
			C100.95,425.914,101.305,423.486,101.305,423.486z"/>
		<polygon style="fill:#2F2930;" points="79.205,419.392 83.845,442.633 85.398,442.987 81.929,419.392 		"/>
		<polygon style="fill:#2F2930;" points="85.398,417.518 89.887,442.987 91.401,442.987 88.399,416.178 		"/>
		<polygon style="fill:#2F2930;" points="92.588,418.419 94.903,442.987 96.759,442.987 94.903,418.419 		"/>
		<path style="fill:#2F2930;" d="M197.457,423.486l25.954,2.65v1.338c0,0-24.744-1.117-25.171-1.338
			C197.812,425.914,197.457,423.486,197.457,423.486z"/>
		<polygon style="fill:#2F2930;" points="219.557,419.392 214.917,443.54 213.364,442.987 216.833,419.392 		"/>
		<polygon style="fill:#2F2930;" points="213.364,417.518 208.875,442.987 207.362,442.987 210.363,416.178 		"/>
		<polygon style="fill:#2F2930;" points="206.174,418.419 203.859,442.987 202.004,442.987 203.859,418.419 		"/>
		<path style="fill:#394E45;" d="M204.592,379.896l-20.299,33.749l-21.155-0.538l14.955-28.676c0,0,16.835-1.274,25.86-4.421"/>
		<polygon style="fill:#394E45;" points="194.179,371.818 190.652,382.187 164.837,385.471 168.783,376.47 		"/>
		<path style="fill:#394E45;" d="M163.724,299.102c-22.257,5.305-37.051,4.559-37.051,4.559l-23.789,24.46l50.172-5.289
			L163.724,299.102z"/>
		<g>
			<path style="fill:#394E45;" d="M166.672,369.621l5.981-0.483c0,0,4.568-43.309-2.567-43.119
				C161.651,326.244,166.672,369.621,166.672,369.621z"/>
			<path style="fill:#E7D16A;" d="M167.259,369.189l4.86-0.392c0,0,3.186-41.718-2.617-41.623
				C162.642,327.288,167.259,369.189,167.259,369.189z"/>
			<polygon style="fill:#2F2930;" points="169.082,332.568 169.176,370.643 169.708,371.123 169.708,332.517 			"/>
			<g>
				<polygon style="fill:#2F2930;" points="163.45,343.01 164.655,352.023 164.701,343.086 				"/>
				<polygon style="fill:#2F2930;" points="163.724,333.396 163.979,342.021 164.707,342.099 164.752,333.352 				"/>
				<polygon style="fill:#2F2930;" points="163.966,355.955 164.621,358.677 164.635,355.909 				"/>
				<polygon style="fill:#2F2930;" points="174.987,343.199 164.707,342.099 164.701,343.086 175.029,343.712 				"/>
				<polygon style="fill:#2F2930;" points="174.097,332.163 164.754,332.917 164.752,333.352 174.16,332.951 				"/>
				<polygon style="fill:#2F2930;" points="165.677,363.066 164.621,358.677 164.595,363.745 173.566,364.74 173.516,364.115 				
					"/>
				<polygon style="fill:#2F2930;" points="174.92,354.33 164.984,354.484 164.655,352.023 164.635,355.909 174.99,355.192 				"/>
			</g>
		</g>
		<polygon style="fill:#394E45;" points="96.258,396.963 157.134,400.156 158.095,441.184 100.564,442.987 		"/>
		<g>
			<path style="fill:#394E45;" d="M191.79,411.552h6.694c0,0-0.541-12.386-2.568-12.333
				C193.89,399.273,191.79,411.552,191.79,411.552z"/>
			<path style="fill:#E7D16A;" d="M192.479,411.416h5.406c0,0-0.437-11.686-2.074-11.635
				C194.174,399.832,192.479,411.416,192.479,411.416z"/>
			<path style="fill:#2F2930;" d="M195.514,399.18l-0.369,13.105c0.068,0.006,0.291,0.755,0.369,0.041
				c0.374-3.402,0.665-14.449,0.665-14.449l2.247,5.321l-5.141-0.217l-0.806,0.76l5.947-0.109l0.824,5.032l-7.499-0.444v0.285
				l7.924,0.774l-2.672-12.317h-1.291"/>
		</g>
		<g>
			<path style="fill:#394E45;" d="M166.282,435.424h6.694c0,0-0.541-12.387-2.568-12.333
				C168.382,423.144,166.282,435.424,166.282,435.424z"/>
			<path style="fill:#E7D16A;" d="M166.97,435.288h5.406c0,0-0.437-11.686-2.074-11.635
				C168.666,423.703,166.97,435.288,166.97,435.288z"/>
			<path style="fill:#2F2930;" d="M170.005,423.052l-0.369,13.105c0.068,0.006,0.29,0.754,0.369,0.041
				c0.374-3.402,0.665-14.449,0.665-14.449l2.247,5.321l-5.141-0.217l-0.806,0.76l5.947-0.109l0.824,5.032l-7.499-0.444v0.285
				l7.924,0.774l-2.672-12.316h-1.291"/>
		</g>
		<g>
			<polygon style="fill:#2F2930;" points="127.8,304.814 135.347,304.25 140.275,310.56 140.004,320.207 133.462,322.267 			"/>
			<polygon style="fill:#2F2930;" points="124.107,314.771 125.157,322.804 133.462,322.267 132.917,313.619 128.388,306.545 			"/>
			<polygon style="fill:#394E45;" points="124.68,315.564 125.482,321.704 132.37,321.223 131.99,314.608 128.297,309.231 			"/>
			<polygon style="fill:#2F2930;" points="125.392,315.548 126.041,320.508 131.604,320.119 131.298,314.776 128.314,310.433 			"/>
			<polygon style="fill:#394E45;" points="122.994,314.443 127.8,304.814 134.685,312.915 132.917,313.619 128.105,308.054 
				124.107,314.771 			"/>
		</g>
		<g>
			<polygon style="fill:#2F2930;" points="171.836,388.085 179.384,388.632 183.336,395.595 181.655,405.099 174.883,406.179 			"/>
			<polygon style="fill:#2F2930;" points="166.726,397.394 166.589,405.495 174.883,406.179 175.609,397.545 172.165,389.884 			"/>
			<polygon style="fill:#394E45;" points="167.176,398.263 167.071,404.454 173.955,404.987 174.547,398.387 171.681,392.528 			"/>
			<polygon style="fill:#2F2930;" points="167.883,398.351 167.799,403.353 173.359,403.783 173.838,398.452 171.522,393.719 			"/>
			<polygon style="fill:#394E45;" points="165.673,396.907 171.836,388.085 177.461,397.107 175.609,397.545 171.663,391.335 
				166.726,397.394 			"/>
		</g>
		<g>
			<circle style="fill:#394E45;" cx="168.061" cy="313.459" r="3.042"/>
			<path style="fill:#E7D16A;" d="M170.625,313.609c0,1.499-1.215,2.714-2.714,2.714c-1.499,0-2.714-1.215-2.714-2.714
				c0-1.499,1.215-2.714,2.714-2.714C169.41,310.895,170.625,312.11,170.625,313.609z"/>
			<g>
				<path style="fill:#2F2930;" d="M168.888,314.697l-0.163,2.091c0.239-0.007,0.471-0.031,0.697-0.071l-0.028-2.039l1.882-0.07
					c0.013-0.07,0.018-0.14,0.028-0.21l-1.915-0.03l-0.028-2.092l1.836,0.049c-0.023-0.101-0.045-0.202-0.073-0.304l-6.168-0.212
					c-0.028,0.108-0.061,0.223-0.099,0.347l1.861,0.049l0.069,2.121l-2.042-0.032c0.113,0.193,0.249,0.37,0.394,0.542l1.662-0.062
					l0.059,1.828c0.173,0.088,0.355,0.161,0.561,0.203l-0.2-2.047L168.888,314.697z M166.976,312.212l2.101,0.056l-0.163,2.092
					l-1.732-0.027L166.976,312.212z"/>
			</g>
		</g>
		<polygon style="fill:#394E45;" points="205.647,394.99 202.548,401.309 202.548,412.234 209.435,411.636 		"/>
		<path style="fill:#2F2930;" d="M117.185,436.448c0.802-6.722,3.583-33.33-2.657-33.153c-7.233,0.205-4.659,25.816-3.772,33.153
			H117.185z"/>
		<path style="fill:#2F2930;" d="M133.384,436.448c0.75-6.197,3.713-33.611-2.623-33.431c-7.326,0.207-4.591,26.482-3.739,33.431
			H133.384z"/>
		<path style="fill:#2F2930;" d="M149.583,436.448c0.69-5.616,3.844-33.891-2.589-33.709c-7.427,0.21-4.513,27.212-3.704,33.709
			H149.583z"/>
		<polygon style="fill:#394E45;" points="184.293,413.646 186.005,443.593 184.307,444.454 180.801,411.636 		"/>
		<polygon style="fill:#394E45;" points="188.602,443.132 188.298,421.71 196.247,421.71 194.844,443.593 		"/>
		<polygon style="fill:#2F2930;" points="66.312,447.476 234.572,447.476 234.572,445.514 203.254,441.432 83.845,441.432 
			67.028,445.514 		"/>
		<path style="fill:#394E45;" d="M126.645,304.761c0,0-2.332-2.285-0.394-4.861c0,0-1.429-3.815,0.407-11.214
			c0,0,1.823,7.602,0.366,11.268C127.025,299.954,129.143,302.068,126.645,304.761z"/>
		<path style="fill:#2F2930;" d="M163.367,301.724c0,0-2.332-2.285-0.394-4.861c0,0-1.429-3.815,0.408-11.214
			c0,0,1.823,7.602,0.366,11.268C163.746,296.916,165.865,299.03,163.367,301.724z"/>
		<path style="fill:#394E45;" d="M101.278,377.227c0,0-2.332-2.285-0.394-4.861c0,0-1.429-3.815,0.407-11.214
			c0,0,1.823,7.602,0.366,11.268C101.657,372.419,103.776,374.534,101.278,377.227z"/>
		<path style="fill:#2F2930;" d="M193.829,372.972c0,0,2.332-2.285,0.394-4.861c0,0,1.429-3.815-0.408-11.214
			c0,0-1.823,7.602-0.366,11.268C193.449,368.164,191.331,370.279,193.829,372.972z"/>
		<path style="fill:#2F2930;" d="M204.445,381.869c0,0,2.332-2.285,0.394-4.861c0,0,1.429-3.815-0.408-11.214
			c0,0-1.823,7.602-0.366,11.268C204.066,377.061,201.947,379.176,204.445,381.869z"/>
	</g>
	<g>
		<g>
			<path id="SVGID_x5F_00000030487102351637185590000008571970842003659185_x5F_" style="fill:none;" d="M405.961,93.921
				C349.769,54.278,294.8,50.907,250,50.677c-44.8,0.229-99.768,3.601-155.96,43.243"/>
			<text>			<textPath  xlink:href="#SVGID_x5F_00000030487102351637185590000008571970842003659185_x5F_" startOffset="1.367%">
<tspan  style="fill:#FFFFFF; font-family:'KomikaAxis'; font-size:24px; letter-spacing:49.805;">halloween House</tspan>			</textPath>
</text>
		</g>
		<path id="SVGID_x5F_00000178895675263291755840000001488953192480393092_x5F_" style="fill:none;" d="M405.961,115.542
			C349.769,75.9,294.8,72.528,250,72.299c-44.8,0.229-99.768,3.601-155.96,43.243"/>
		<text>		<textPath  xlink:href="#SVGID_x5F_00000178895675263291755840000001488953192480393092_x5F_" startOffset="1.361%">
<tspan  style="fill:#394E45; font-family:'Sarina-Regular'; font-size:19px; letter-spacing:49.805;">Collection</tspan>		</textPath>
</text>
		<g>
			
				<rect x="172.952" y="70.927" transform="matrix(0.9059 0.4236 -0.4236 0.9059 47.2209 -67.1517)" style="fill:#FFFFFF;" width="3.459" height="3.459"/>
			
				<rect x="323.59" y="70.927" transform="matrix(-0.9059 0.4236 -0.4236 -0.9059 650.7876 0.6726)" style="fill:#FFFFFF;" width="3.459" height="3.459"/>
		</g>
	</g>
</g>
<g id="DESIGNED_BY_FREEPIK">
	<g>
		<g>
			<g id="XMLID_225_">
				<g id="XMLID_244_">
					<path id="XMLID_252_" style="fill:#F6F8F9;" d="M260.104,465.465c-0.432,0.443-0.803,0.931-1.108,1.453l-0.465-0.241
						c-0.067-0.298-0.349-0.503-0.659-0.466c-0.331,0.039-0.568,0.339-0.529,0.67c0.039,0.331,0.339,0.568,0.67,0.529
						c0.065-0.008,0.127-0.026,0.183-0.052l0.452,0.234c-0.251,0.554-0.433,1.139-0.539,1.744l0.747,0.132
						c0.23-1.306,0.85-2.507,1.792-3.473L260.104,465.465z"/>
					<path id="XMLID_251_" style="fill:#F6F8F9;" d="M265.592,463.163c-0.171,0-0.341,0.006-0.51,0.017l-0.074-0.626
						c0.188-0.149,0.296-0.389,0.266-0.645c-0.046-0.393-0.402-0.674-0.795-0.628c-0.393,0.046-0.674,0.402-0.628,0.795
						c0.03,0.254,0.189,0.461,0.405,0.564l0.073,0.624c-0.714,0.116-1.403,0.332-2.06,0.646l0.327,0.684
						c0.934-0.447,1.942-0.673,2.995-0.673c0.496,0,0.993,0.053,1.475,0.158l0.161-0.741
						C266.692,463.222,266.142,463.163,265.592,463.163z"/>
					<path id="XMLID_250_" style="fill:#F6F8F9;" d="M272.194,465.711c0.331-0.04,0.566-0.341,0.526-0.672
						c-0.04-0.331-0.341-0.566-0.672-0.526c-0.309,0.038-0.535,0.304-0.53,0.609l-0.416,0.363c-0.418-0.43-0.89-0.813-1.408-1.139
						l-0.404,0.641c1.134,0.715,2.021,1.726,2.563,2.925l0.691-0.313c-0.251-0.554-0.568-1.072-0.942-1.545l0.402-0.351
						C272.065,465.716,272.129,465.719,272.194,465.711z"/>
					<path id="XMLID_249_" style="fill:#F6F8F9;" d="M265.044,473.372c-0.386,0.023-0.775,0.035-1.157,0.035
						c-0.88,0-1.733-0.061-2.478-0.179c-0.39-0.062-0.846-0.155-1.27-0.292c1.046,1.861,3.069,3.125,5.388,3.125
						c2.855,0,5.262-1.916,5.95-4.504c-0.682,0.449-1.505,0.825-2.459,1.123C267.839,473.047,266.464,473.286,265.044,473.372z"/>
					<path id="XMLID_245_" style="fill:#F6F8F9;" d="M265.592,464.68c-3.352,0-6.08,2.666-6.08,5.943
						c0,0.426,0.046,0.849,0.137,1.261c0.673,0.483,2.706,0.89,5.348,0.731c2.879-0.173,5.297-0.957,6.672-2.159
						c-0.005-0.195-0.021-0.39-0.045-0.582C271.244,466.913,268.65,464.68,265.592,464.68z M263.432,471.194
						c-1.02,0-1.85-0.83-1.85-1.85c0-1.02,0.83-1.85,1.85-1.85c1.02,0,1.85,0.83,1.85,1.85
						C265.282,470.365,264.452,471.194,263.432,471.194z M268.17,470.286c-0.75,0-1.36-0.61-1.36-1.36s0.61-1.361,1.36-1.361
						c0.75,0,1.361,0.61,1.361,1.361S268.92,470.286,268.17,470.286z"/>
				</g>
				<path id="XMLID_242_" style="fill:#F6F8F9;" d="M281.595,466.547c-0.295-0.116-0.805-0.309-1.382-0.237
					c-0.551,0.069-0.844,0.341-0.844,1.007v0.866h2.228v1.717h-2.228v5.455h-1.932v-5.455h-1.34v-1.717h1.34v-0.888
					c0-1.68,0.896-2.783,2.568-2.783c0.643,0,1.157,0.122,1.59,0.308L281.595,466.547z"/>
				<path id="XMLID_240_" style="fill:#F6F8F9;" d="M286.298,469.879c-0.177-0.03-0.358-0.046-0.526-0.046
					c-0.896,0-1.51,0.548-1.51,1.614v3.908h-1.932v-7.172h1.873v0.785c0.451-0.673,1.14-0.977,2.021-0.977
					c0.414,0,0.848,0.128,1.094,0.337L286.298,469.879z"/>
				<path id="XMLID_237_" style="fill:#F6F8F9;" d="M293.965,471.757c0,0.222-0.015,0.489-0.037,0.651h-5.085
					c0.207,1.036,0.933,1.488,1.843,1.488c0.622,0,1.295-0.252,1.813-0.688l1.132,1.243c-0.814,0.748-1.85,1.088-3.057,1.088
					c-2.198,0-3.723-1.495-3.723-3.753c0-2.258,1.48-3.797,3.627-3.797C292.544,467.99,293.958,469.522,293.965,471.757z
					 M288.851,471.091h3.175c-0.177-0.918-0.733-1.436-1.562-1.436C289.554,469.655,289.021,470.203,288.851,471.091z"/>
				<path id="XMLID_234_" style="fill:#F6F8F9;" d="M301.618,471.757c0,0.222-0.015,0.489-0.037,0.651h-5.085
					c0.207,1.036,0.933,1.488,1.843,1.488c0.622,0,1.295-0.252,1.813-0.688l1.132,1.243c-0.814,0.748-1.85,1.088-3.057,1.088
					c-2.198,0-3.723-1.495-3.723-3.753c0-2.258,1.48-3.797,3.627-3.797C300.197,467.99,301.611,469.522,301.618,471.757z
					 M296.504,471.091h3.175c-0.178-0.918-0.733-1.436-1.562-1.436C297.207,469.655,296.674,470.203,296.504,471.091z"/>
				<path id="XMLID_231_" style="fill:#F6F8F9;" d="M309.964,471.764c0,2.154-1.495,3.775-3.471,3.775
					c-0.962,0-1.643-0.378-2.109-0.933v3.708h-1.924v-10.133h1.887v0.792c0.466-0.585,1.155-0.984,2.139-0.984
					C308.469,467.99,309.964,469.61,309.964,471.764z M304.287,471.764c0,1.132,0.747,1.976,1.843,1.976
					c1.14,0,1.85-0.881,1.85-1.976c0-1.095-0.71-1.976-1.85-1.976C305.035,469.788,304.287,470.632,304.287,471.764z"/>
				<path id="XMLID_228_" style="fill:#F6F8F9;" d="M313.068,465.836c0,0.696-0.54,1.229-1.236,1.229
					c-0.696,0-1.229-0.533-1.229-1.229c0-0.696,0.533-1.243,1.229-1.243C312.527,464.592,313.068,465.14,313.068,465.836z
					 M312.809,475.354h-1.932v-7.172h1.932V475.354z"/>
				<path id="XMLID_226_" style="fill:#F6F8F9;" d="M316.032,470.736l2.701-2.554h2.368l-3.479,3.375l3.501,3.797h-2.376
					l-2.716-2.901v2.901H314.1v-10.658h1.932V470.736z"/>
			</g>
			<g>
				<path style="fill:#F6F8F9;" d="M184.412,475.289v-1.055c-0.527,0.718-1.391,1.23-2.387,1.23c-1.846,0-3.149-1.406-3.149-3.706
					c0-2.256,1.289-3.721,3.149-3.721c0.952,0,1.816,0.469,2.387,1.245v-3.765h1.099v9.77H184.412z M184.412,473.37v-3.208
					c-0.395-0.615-1.245-1.143-2.124-1.143c-1.421,0-2.27,1.172-2.27,2.739c0,1.567,0.85,2.724,2.27,2.724
					C183.168,474.483,184.017,473.986,184.412,473.37z"/>
				<path style="fill:#F6F8F9;" d="M186.932,471.744c0-2.051,1.465-3.706,3.486-3.706c2.139,0,3.398,1.67,3.398,3.794v0.279h-5.727
					c0.088,1.333,1.025,2.446,2.549,2.446c0.805,0,1.626-0.322,2.182-0.894l0.527,0.718c-0.703,0.703-1.655,1.084-2.812,1.084
					C188.44,475.465,186.932,473.956,186.932,471.744z M190.403,468.947c-1.509,0-2.256,1.274-2.314,2.358h4.643
					C192.718,470.25,192.015,468.947,190.403,468.947z"/>
				<path style="fill:#F6F8F9;" d="M194.607,474.351l0.571-0.791c0.469,0.542,1.362,1.011,2.329,1.011
					c1.084,0,1.67-0.513,1.67-1.216c0-1.714-4.38-0.659-4.38-3.281c0-1.098,0.952-2.036,2.636-2.036
					c1.201,0,2.051,0.454,2.622,1.026l-0.513,0.762c-0.424-0.513-1.201-0.894-2.109-0.894c-0.967,0-1.567,0.483-1.567,1.113
					c0,1.552,4.38,0.527,4.38,3.281c0,1.187-0.952,2.138-2.783,2.138C196.306,475.465,195.325,475.113,194.607,474.351z"/>
				<path style="fill:#F6F8F9;" d="M201.477,466.471c0-0.41,0.337-0.747,0.732-0.747c0.41,0,0.747,0.337,0.747,0.747
					c0,0.41-0.337,0.732-0.747,0.732C201.814,467.203,201.477,466.881,201.477,466.471z M201.667,475.289v-7.075h1.099v7.075
					H201.667z"/>
				<path style="fill:#F6F8F9;" d="M204.582,477.105l0.556-0.82c0.586,0.703,1.289,0.967,2.3,0.967c1.172,0,2.27-0.571,2.27-2.124
					v-1.011c-0.513,0.718-1.377,1.26-2.373,1.26c-1.845,0-3.149-1.377-3.149-3.662c0-2.27,1.289-3.677,3.149-3.677
					c0.952,0,1.802,0.469,2.373,1.245v-1.069h1.098v6.87c0,2.344-1.641,3.076-3.369,3.076
					C206.237,478.16,205.417,477.926,204.582,477.105z M209.709,473.253v-3.091c-0.381-0.615-1.23-1.143-2.109-1.143
					c-1.421,0-2.27,1.128-2.27,2.695c0,1.553,0.849,2.695,2.27,2.695C208.478,474.41,209.328,473.868,209.709,473.253z"/>
				<path style="fill:#F6F8F9;" d="M217.413,475.289v-4.629c0-1.245-0.63-1.641-1.582-1.641c-0.865,0-1.685,0.527-2.095,1.099v5.17
					h-1.099v-7.075h1.099v1.025c0.498-0.586,1.465-1.201,2.519-1.201c1.48,0,2.256,0.747,2.256,2.285v4.966H217.413z"/>
				<path style="fill:#F6F8F9;" d="M219.932,471.744c0-2.051,1.465-3.706,3.486-3.706c2.139,0,3.398,1.67,3.398,3.794v0.279h-5.727
					c0.088,1.333,1.025,2.446,2.549,2.446c0.806,0,1.626-0.322,2.183-0.894l0.527,0.718c-0.703,0.703-1.655,1.084-2.812,1.084
					C221.441,475.465,219.932,473.956,219.932,471.744z M223.404,468.947c-1.509,0-2.256,1.274-2.314,2.358h4.643
					C225.718,470.25,225.015,468.947,223.404,468.947z"/>
				<path style="fill:#F6F8F9;" d="M233.35,475.289v-1.055c-0.527,0.718-1.392,1.23-2.388,1.23c-1.846,0-3.149-1.406-3.149-3.706
					c0-2.256,1.289-3.721,3.149-3.721c0.952,0,1.817,0.469,2.388,1.245v-3.765h1.098v9.77H233.35z M233.35,473.37v-3.208
					c-0.396-0.615-1.245-1.143-2.124-1.143c-1.421,0-2.27,1.172-2.27,2.739c0,1.567,0.849,2.724,2.27,2.724
					C232.105,474.483,232.954,473.986,233.35,473.37z"/>
				<path style="fill:#F6F8F9;" d="M239.692,475.289v-9.77h1.098v3.765c0.572-0.776,1.421-1.245,2.388-1.245
					c1.845,0,3.149,1.465,3.149,3.721c0,2.299-1.304,3.706-3.149,3.706c-0.996,0-1.86-0.513-2.388-1.23v1.055H239.692z
					 M242.9,474.483c1.436,0,2.285-1.157,2.285-2.724c0-1.568-0.85-2.739-2.285-2.739c-0.864,0-1.728,0.527-2.109,1.143v3.208
					C241.171,473.986,242.036,474.483,242.9,474.483z"/>
				<path style="fill:#F6F8F9;" d="M247.528,477.061c0.161,0.073,0.425,0.117,0.601,0.117c0.483,0,0.805-0.161,1.055-0.747
					l0.469-1.069l-2.959-7.148h1.187l2.358,5.8l2.344-5.8h1.201l-3.545,8.51c-0.425,1.025-1.143,1.421-2.08,1.435
					c-0.234,0-0.601-0.044-0.806-0.103L247.528,477.061z"/>
			</g>
		</g>
	</g>
</g>
</svg>
